<svg xmlns="http://www.w3.org/2000/svg" width="146" height="9.492" viewBox="0 0 146 9.492"><g transform="translate(-758.995 -462.566)"><path d="M761.488,468.426a2.388,2.388,0,0,1-.966-.2,2.528,2.528,0,0,1-1.329-1.329,2.388,2.388,0,0,1-.2-.966v-.875a2.389,2.389,0,0,1,.2-.965,2.531,2.531,0,0,1,1.329-1.329,2.389,2.389,0,0,1,.966-.2H772.96v2.361H762.577v1.288h7.891a2.382,2.382,0,0,1,.965.2,2.62,2.62,0,0,1,.792.528,2.458,2.458,0,0,1,.537.784,2.39,2.39,0,0,1,.2.966v.874a2.39,2.39,0,0,1-.2.966,2.534,2.534,0,0,1-1.329,1.329,2.382,2.382,0,0,1-.965.2H758.995V469.7h10.383v-1.271Z" transform="translate(0 0)" fill="#fff"/><path d="M804.812,472.058h-3.6v-9.492H812.39a3.01,3.01,0,0,1,1.032.182,2.956,2.956,0,0,1,.9.511,2.579,2.579,0,0,1,.636.784,2.111,2.111,0,0,1,.24,1v1.139a2.014,2.014,0,0,1-.248.982,2.612,2.612,0,0,1-.652.784,3.386,3.386,0,0,1-.908.529,2.721,2.721,0,0,1-1,.2h-7.577Zm6.8-7.131h-6.8v1.519h6.8Z" transform="translate(-15.751 0)" fill="#fff"/><path d="M847.054,472.058h-3.6v-7a2.391,2.391,0,0,1,.2-.965,2.531,2.531,0,0,1,1.329-1.329,2.388,2.388,0,0,1,.966-.2h9.013a2.376,2.376,0,0,1,.941.19,2.61,2.61,0,0,1,.784.512,2.525,2.525,0,0,1,.545.759,2.163,2.163,0,0,1,.206.933v7.1h-3.582v-2.839h-6.8Zm6.8-5.051v-2.08h-6.8v2.08Z" transform="translate(-31.51 0)" fill="#fff"/><path d="M889.38,469.7h10.367v2.36H888.274a2.381,2.381,0,0,1-.966-.2,2.534,2.534,0,0,1-1.329-1.329,2.394,2.394,0,0,1-.2-.966v-4.507a2.394,2.394,0,0,1,.2-.965,2.533,2.533,0,0,1,1.329-1.329,2.388,2.388,0,0,1,.966-.2h11.473v2.361H889.38Z" transform="translate(-47.307 0)" fill="#fff"/><path d="M941.92,469.7v2.36H930.448a2.38,2.38,0,0,1-.966-.2,2.534,2.534,0,0,1-1.329-1.329,2.4,2.4,0,0,1-.2-.966v-4.507a2.4,2.4,0,0,1,.2-.965,2.533,2.533,0,0,1,1.329-1.329,2.387,2.387,0,0,1,.966-.2H941.92v2.361H931.554v1.288h9.64v2.212h-9.64V469.7Z" transform="translate(-63.044 0)" fill="#fff"/><path d="M976.6,465.306l2.823-2.74h4.16l-4.9,4.754,4.9,4.738h-4.16l-2.823-2.723-2.822,2.723h-4.16l4.9-4.738-4.9-4.754h4.16Z" transform="translate(-78.591 0)" fill="#fff"/></g></svg>