<?xml version="1.0" encoding="utf-8"?>
<!-- Generator: Adobe Illustrator 24.2.3, SVG Export Plug-In . SVG Version: 6.00 Build 0)  -->
<svg version="1.1" xmlns="http://www.w3.org/2000/svg" xmlns:xlink="http://www.w3.org/1999/xlink" x="0px" y="0px"
	 viewBox="0 0 100 100" style="enable-background:new 0 0 100 100;" xml:space="preserve">
<style type="text/css">
	.st0{fill:#FFFFFF;}
</style>
<g id="Layer_1">
	<g>
		<path class="st0" d="M50,4.2c25.3,0,45.8,20.6,45.8,45.8S75.3,95.8,50,95.8S4.2,75.3,4.2,50S24.7,4.2,50,4.2 M50,1.2
			C23,1.2,1.2,23,1.2,50S23,98.8,50,98.8S98.8,77,98.8,50S77,1.2,50,1.2L50,1.2z"/>
	</g>
	<g>
		<path class="st0" d="M50,17.6c17.8,0,32.4,14.5,32.4,32.4S67.8,82.4,50,82.4S17.6,67.8,17.6,50S32.2,17.6,50,17.6 M50,14.6
			c-19.5,0-35.4,15.8-35.4,35.4S30.5,85.4,50,85.4S85.4,69.5,85.4,50S69.5,14.6,50,14.6L50,14.6z"/>
	</g>
	<g>
		<circle class="st0" cx="50" cy="50" r="7.1"/>
	</g>
	<g>
		<circle class="st0" cx="68.6" cy="56.6" r="6"/>
	</g>
	<g>
		<circle class="st0" cx="19.4" cy="13.7" r="6"/>
	</g>
	<g>
		<circle class="st0" cx="34.4" cy="79.9" r="6"/>
	</g>
	<g>
		<path class="st0" d="M50,31.9c10,0,18.1,8.1,18.1,18.1S60,68.1,50,68.1S31.9,60,31.9,50S40,31.9,50,31.9 M50,28.9
			c-11.7,0-21.1,9.5-21.1,21.1S38.3,71.1,50,71.1S71.1,61.7,71.1,50S61.7,28.9,50,28.9L50,28.9z"/>
	</g>
</g>
<g id="Layer_2">
</g>
</svg>
