<?xml version="1.0" encoding="utf-8"?>
<!-- Generator: Adobe Illustrator 24.2.3, SVG Export Plug-In . SVG Version: 6.00 Build 0)  -->
<svg version="1.1" id="Layer_1" xmlns="http://www.w3.org/2000/svg" xmlns:xlink="http://www.w3.org/1999/xlink" x="0px" y="0px"
	 viewBox="0 0 100 100" style="enable-background:new 0 0 100 100;" xml:space="preserve">
<style type="text/css">
	.st0{fill:#FFFFFF;}
</style>
<g id="sun">
	<circle class="st0" cx="50" cy="50" r="7.1"/>
</g>
<path id="planet03" class="st0" d="M50,1.2c-9.8,0-19,2.9-26.7,7.9c-1.1-0.9-2.4-1.4-3.9-1.4c-3.3,0-6,2.7-6,6
	c0,1.1,0.3,2.2,0.8,3.1C6.1,25.5,1.2,37.1,1.2,50C1.2,77,23,98.8,50,98.8S98.8,77,98.8,50S77,1.2,50,1.2z M50,95.8
	C24.7,95.8,4.2,75.3,4.2,50c0-12,4.7-23,12.2-31.1c0.9,0.5,1.9,0.8,3,0.8c3.3,0,6-2.7,6-6c0-0.7-0.1-1.4-0.4-2.1
	C32.2,6.9,40.8,4.2,50,4.2c25.3,0,45.8,20.6,45.8,45.8S75.3,95.8,50,95.8z"/>
<path id="planet02" class="st0" d="M50,14.6c-19.5,0-35.4,15.8-35.4,35.4c0,11.5,5.5,21.7,14,28.2c-0.2,0.5-0.3,1.1-0.3,1.7
	c0,3.3,2.7,6,6,6c1.9,0,3.6-0.9,4.7-2.3c3.4,1.1,7.1,1.7,10.9,1.7c19.5,0,35.4-15.8,35.4-35.4C85.4,30.5,69.5,14.6,50,14.6z
	 M50,82.4c-3.4,0-6.6-0.5-9.7-1.5c0.1-0.3,0.1-0.6,0.1-1c0-3.3-2.7-6-6-6c-1.6,0-3.1,0.6-4.2,1.7C22.6,69.7,17.6,60.4,17.6,50
	c0-17.8,14.5-32.4,32.4-32.4S82.4,32.2,82.4,50C82.4,67.8,67.8,82.4,50,82.4z"/>
<path id="planet03_1_" class="st0" d="M71.1,51.1c0-0.4,0.1-0.8,0.1-1.1c0-11.7-9.5-21.1-21.1-21.1S28.9,38.3,28.9,50
	S38.3,71.1,50,71.1c7,0,13.2-3.4,17.1-8.7c0.5,0.1,1,0.2,1.5,0.2c3.3,0,6-2.7,6-6C74.6,54.2,73.1,52.1,71.1,51.1z M50,68.1
	C40,68.1,31.9,60,31.9,50S40,31.9,50,31.9S68.1,40,68.1,50c0,0.2,0,0.4,0,0.6c-3.1,0.3-5.5,2.8-5.5,6c0,1.7,0.7,3.2,1.8,4.3
	C61.1,65.3,55.9,68.1,50,68.1z"/>
</svg>
